STARTFONT 2.1
COMMENT
COMMENT  Copyright (c) 2001, Poonlap Veerathanabutr
COMMENT
COMMENT  License to copy and distribute for both commercial and
COMMENT  non-commercial use is herby granted, provided this notice
COMMENT  is preserved.
COMMENT
COMMENT  Poonlap.Veerathanabutr@Japan.Sun.COM
COMMENT  Modified from NECTEC's thai8.bdf. Emacs/Mule can use this font.
COMMENT
COMMENT  Produced with bdfedit, a tcl/tk font editing program
COMMENT  written by Thomas A. Fine
FONT -nectec-emacs-medium-r-normal--18-180-72-72-c-90-tis620-0
SIZE 18 72 72
FONTBOUNDINGBOX 18 18 -9 -3
STARTPROPERTIES 11
FOUNDRY "nectec"
FAMILY_NAME "emacs"
WEIGHT_NAME "medium"
SLANT "r"
SETWIDTH_NAME "normal"
SPACING "c"
CHARSET_REGISTRY "ISO-8859"
CHARSET_ENCODING "1"
COPYRIGHT "Copyright (C) 1999,2000 NECTEC, released under GPL license"
FONT_ASCENT  15
FONT_DESCENT 3
ENDPROPERTIES
CHARS 182
STARTCHAR SPACE
ENCODING 32
SWIDTH 500 0
DWIDTH 9 0
BBX 0 0 0 0
BITMAP
ENDCHAR
STARTCHAR EXCLAMATION
ENCODING 33
SWIDTH 500 0
DWIDTH 9 0
BBX 1 10 4 0
BITMAP
80
80
80
80
80
80
80
00
80
80
ENDCHAR
STARTCHAR QUOTATION
ENCODING 34
SWIDTH 500 0
DWIDTH 9 0
BBX 5 4 2 7
BITMAP
d8
d8
48
90
ENDCHAR
STARTCHAR NUMBER
ENCODING 35
SWIDTH 500 0
DWIDTH 9 0
BBX 7 10 1 0
BITMAP
0a
14
14
fe
28
28
fe
50
50
a0
ENDCHAR
STARTCHAR DOLLAR
ENCODING 36
SWIDTH 500 0
DWIDTH 9 0
BBX 7 10 1 0
BITMAP
10
7c
92
90
70
1c
12
92
7c
10
ENDCHAR
STARTCHAR PERCENT
ENCODING 37
SWIDTH 500 0
DWIDTH 9 0
BBX 7 10 1 0
BITMAP
62
92
94
68
18
30
2c
52
92
8c
ENDCHAR
STARTCHAR AMPERSAND
ENCODING 38
SWIDTH 500 0
DWIDTH 9 0
BBX 7 10 1 0
BITMAP
30
48
48
30
20
52
8a
8c
8c
72
ENDCHAR
STARTCHAR c27
ENCODING 39
SWIDTH 500 0
DWIDTH 9 0
BBX 2 4 3 7
BITMAP
c0
c0
40
80
ENDCHAR
STARTCHAR LEFT
ENCODING 40
SWIDTH 500 0
DWIDTH 9 0
BBX 4 12 3 -1
BITMAP
10
20
40
40
80
80
80
80
40
40
20
10
ENDCHAR
STARTCHAR RIGHT
ENCODING 41
SWIDTH 500 0
DWIDTH 9 0
BBX 4 12 2 -1
BITMAP
80
40
20
20
10
10
10
10
20
20
40
80
ENDCHAR
STARTCHAR ASTERISK
ENCODING 42
SWIDTH 500 0
DWIDTH 9 0
BBX 7 7 1 1
BITMAP
10
92
54
38
54
92
10
ENDCHAR
STARTCHAR PLUS
ENCODING 43
SWIDTH 500 0
DWIDTH 9 0
BBX 7 7 1 1
BITMAP
10
10
10
fe
10
10
10
ENDCHAR
STARTCHAR COMMA
ENCODING 44
SWIDTH 500 0
DWIDTH 9 0
BBX 2 4 3 -2
BITMAP
c0
c0
40
80
ENDCHAR
STARTCHAR HYPHEN,
ENCODING 45
SWIDTH 500 0
DWIDTH 9 0
BBX 7 1 1 4
BITMAP
fe
ENDCHAR
STARTCHAR FULL
ENCODING 46
SWIDTH 500 0
DWIDTH 9 0
BBX 2 2 3 0
BITMAP
c0
c0
ENDCHAR
STARTCHAR c2f
ENCODING 47
SWIDTH 500 0
DWIDTH 9 0
BBX 7 12 1 -1
BITMAP
02
04
04
08
08
10
10
20
20
40
40
80
ENDCHAR
STARTCHAR DIGIT
ENCODING 48
SWIDTH 500 0
DWIDTH 9 0
BBX 7 10 1 0
BITMAP
38
44
44
82
82
82
82
44
44
38
ENDCHAR
STARTCHAR DIGIT
ENCODING 49
SWIDTH 500 0
DWIDTH 9 0
BBX 5 10 2 0
BITMAP
20
60
a0
20
20
20
20
20
20
f8
ENDCHAR
STARTCHAR DIGIT
ENCODING 50
SWIDTH 500 0
DWIDTH 9 0
BBX 7 10 1 0
BITMAP
38
44
82
82
04
08
10
20
40
fe
ENDCHAR
STARTCHAR DIGIT
ENCODING 51
SWIDTH 500 0
DWIDTH 9 0
BBX 7 10 1 0
BITMAP
38
44
82
02
1c
04
02
82
44
38
ENDCHAR
STARTCHAR DIGIT
ENCODING 52
SWIDTH 500 0
DWIDTH 9 0
BBX 7 10 1 0
BITMAP
08
18
18
28
48
48
88
fe
08
08
ENDCHAR
STARTCHAR DIGIT
ENCODING 53
SWIDTH 500 0
DWIDTH 9 0
BBX 7 10 1 0
BITMAP
fc
80
80
f8
84
02
02
02
84
78
ENDCHAR
STARTCHAR DIGIT
ENCODING 54
SWIDTH 500 0
DWIDTH 9 0
BBX 7 10 1 0
BITMAP
18
20
40
b8
c4
82
82
82
44
38
ENDCHAR
STARTCHAR DIGIT
ENCODING 55
SWIDTH 500 0
DWIDTH 9 0
BBX 7 10 1 0
BITMAP
fe
02
04
04
08
08
10
10
10
10
ENDCHAR
STARTCHAR DIGIT
ENCODING 56
SWIDTH 500 0
DWIDTH 9 0
BBX 7 10 1 0
BITMAP
38
44
44
38
44
82
82
82
44
38
ENDCHAR
STARTCHAR DIGIT
ENCODING 57
SWIDTH 500 0
DWIDTH 9 0
BBX 7 10 1 0
BITMAP
38
44
82
82
82
46
3a
04
08
30
ENDCHAR
STARTCHAR COLON
ENCODING 58
SWIDTH 500 0
DWIDTH 9 0
BBX 2 7 3 0
BITMAP
c0
c0
00
00
00
c0
c0
ENDCHAR
STARTCHAR SEMICOLON
ENCODING 59
SWIDTH 500 0
DWIDTH 9 0
BBX 2 9 3 -2
BITMAP
c0
c0
00
00
00
c0
c0
40
80
ENDCHAR
STARTCHAR LESS-THAN
ENCODING 60
SWIDTH 500 0
DWIDTH 9 0
BBX 5 9 2 0
BITMAP
08
10
20
40
80
40
20
10
08
ENDCHAR
STARTCHAR EQUALS
ENCODING 61
SWIDTH 500 0
DWIDTH 9 0
BBX 7 5 1 2
BITMAP
fe
00
00
00
fe
ENDCHAR
STARTCHAR GREATER-THAN
ENCODING 62
SWIDTH 500 0
DWIDTH 9 0
BBX 5 9 2 0
BITMAP
80
40
20
10
08
10
20
40
80
ENDCHAR
STARTCHAR QUESTION
ENCODING 63
SWIDTH 500 0
DWIDTH 9 0
BBX 7 10 1 0
BITMAP
38
44
82
82
04
08
10
10
00
10
ENDCHAR
STARTCHAR COMMERCIAL
ENCODING 64
SWIDTH 500 0
DWIDTH 9 0
BBX 7 10 1 0
BITMAP
38
44
82
9a
a6
a2
a2
9c
40
3e
ENDCHAR
STARTCHAR CAPITAL
ENCODING 65
SWIDTH 500 0
DWIDTH 9 0
BBX 7 10 1 0
BITMAP
38
44
82
82
82
fe
82
82
82
82
ENDCHAR
STARTCHAR CAPITAL
ENCODING 66
SWIDTH 500 0
DWIDTH 9 0
BBX 7 10 1 0
BITMAP
f8
84
82
84
f8
84
82
82
84
f8
ENDCHAR
STARTCHAR CAPITAL
ENCODING 67
SWIDTH 500 0
DWIDTH 9 0
BBX 7 10 1 0
BITMAP
38
44
82
80
80
80
80
82
44
38
ENDCHAR
STARTCHAR CAPITAL
ENCODING 68
SWIDTH 500 0
DWIDTH 9 0
BBX 7 10 1 0
BITMAP
f8
84
82
82
82
82
82
82
84
f8
ENDCHAR
STARTCHAR CAPITAL
ENCODING 69
SWIDTH 500 0
DWIDTH 9 0
BBX 7 10 1 0
BITMAP
fe
80
80
80
fc
80
80
80
80
fe
ENDCHAR
STARTCHAR CAPITAL
ENCODING 70
SWIDTH 500 0
DWIDTH 9 0
BBX 7 10 1 0
BITMAP
fe
80
80
80
fc
80
80
80
80
80
ENDCHAR
STARTCHAR CAPITAL
ENCODING 71
SWIDTH 500 0
DWIDTH 9 0
BBX 7 10 1 0
BITMAP
38
44
82
80
80
8e
82
82
46
3a
ENDCHAR
STARTCHAR CAPITAL
ENCODING 72
SWIDTH 500 0
DWIDTH 9 0
BBX 7 10 1 0
BITMAP
82
82
82
82
fe
82
82
82
82
82
ENDCHAR
STARTCHAR CAPITAL
ENCODING 73
SWIDTH 500 0
DWIDTH 9 0
BBX 5 10 2 0
BITMAP
f8
20
20
20
20
20
20
20
20
f8
ENDCHAR
STARTCHAR CAPITAL
ENCODING 74
SWIDTH 500 0
DWIDTH 9 0
BBX 7 10 1 0
BITMAP
3e
08
08
08
08
08
08
88
88
70
ENDCHAR
STARTCHAR CAPITAL
ENCODING 75
SWIDTH 500 0
DWIDTH 9 0
BBX 7 10 1 0
BITMAP
82
84
88
90
a0
e0
90
88
84
82
ENDCHAR
STARTCHAR CAPITAL
ENCODING 76
SWIDTH 500 0
DWIDTH 9 0
BBX 7 10 1 0
BITMAP
80
80
80
80
80
80
80
80
80
fe
ENDCHAR
STARTCHAR CAPITAL
ENCODING 77
SWIDTH 500 0
DWIDTH 9 0
BBX 7 10 1 0
BITMAP
82
82
c6
c6
aa
aa
92
92
82
82
ENDCHAR
STARTCHAR CAPITAL
ENCODING 78
SWIDTH 500 0
DWIDTH 9 0
BBX 7 10 1 0
BITMAP
82
c2
c2
a2
92
92
8a
86
86
82
ENDCHAR
STARTCHAR CAPITAL
ENCODING 79
SWIDTH 500 0
DWIDTH 9 0
BBX 7 10 1 0
BITMAP
38
44
82
82
82
82
82
82
44
38
ENDCHAR
STARTCHAR CAPITAL
ENCODING 80
SWIDTH 500 0
DWIDTH 9 0
BBX 7 10 1 0
BITMAP
f8
84
82
82
84
f8
80
80
80
80
ENDCHAR
STARTCHAR CAPITAL
ENCODING 81
SWIDTH 500 0
DWIDTH 9 0
BBX 7 10 1 0
BITMAP
38
44
82
82
82
82
9a
a6
64
3a
ENDCHAR
STARTCHAR CAPITAL
ENCODING 82
SWIDTH 500 0
DWIDTH 9 0
BBX 7 10 1 0
BITMAP
f8
84
82
82
84
f8
90
88
84
82
ENDCHAR
STARTCHAR CAPITAL
ENCODING 83
SWIDTH 500 0
DWIDTH 9 0
BBX 7 10 1 0
BITMAP
38
44
82
40
38
04
82
82
44
38
ENDCHAR
STARTCHAR CAPITAL
ENCODING 84
SWIDTH 500 0
DWIDTH 9 0
BBX 7 10 1 0
BITMAP
fe
10
10
10
10
10
10
10
10
10
ENDCHAR
STARTCHAR CAPITAL
ENCODING 85
SWIDTH 500 0
DWIDTH 9 0
BBX 7 10 1 0
BITMAP
82
82
82
82
82
82
82
82
44
38
ENDCHAR
STARTCHAR CAPITAL
ENCODING 86
SWIDTH 500 0
DWIDTH 9 0
BBX 7 10 1 0
BITMAP
82
82
82
44
44
28
28
28
10
10
ENDCHAR
STARTCHAR CAPITAL
ENCODING 87
SWIDTH 500 0
DWIDTH 9 0
BBX 7 10 1 0
BITMAP
82
82
92
92
aa
aa
c6
c6
82
82
ENDCHAR
STARTCHAR CAPITAL
ENCODING 88
SWIDTH 500 0
DWIDTH 9 0
BBX 7 10 1 0
BITMAP
82
44
44
28
10
10
28
44
44
82
ENDCHAR
STARTCHAR CAPITAL
ENCODING 89
SWIDTH 500 0
DWIDTH 9 0
BBX 7 10 1 0
BITMAP
82
82
44
28
28
10
10
10
10
10
ENDCHAR
STARTCHAR CAPITAL
ENCODING 90
SWIDTH 500 0
DWIDTH 9 0
BBX 7 10 1 0
BITMAP
fe
02
04
08
10
20
40
80
80
fe
ENDCHAR
STARTCHAR LEFT
ENCODING 91
SWIDTH 500 0
DWIDTH 9 0
BBX 3 12 4 -1
BITMAP
e0
80
80
80
80
80
80
80
80
80
80
e0
ENDCHAR
STARTCHAR REVERSE
ENCODING 92
SWIDTH 500 0
DWIDTH 9 0
BBX 7 12 1 -1
BITMAP
80
40
40
20
20
10
10
08
08
04
04
02
ENDCHAR
STARTCHAR RIGHT
ENCODING 93
SWIDTH 500 0
DWIDTH 9 0
BBX 3 12 2 -1
BITMAP
e0
20
20
20
20
20
20
20
20
20
20
e0
ENDCHAR
STARTCHAR CIRCUMFLEX
ENCODING 94
SWIDTH 500 0
DWIDTH 9 0
BBX 5 3 2 9
BITMAP
20
50
88
ENDCHAR
STARTCHAR LOW
ENCODING 95
SWIDTH 500 0
DWIDTH 9 0
BBX 7 1 1 -1
BITMAP
fe
ENDCHAR
STARTCHAR GRAVE
ENCODING 96
SWIDTH 500 0
DWIDTH 9 0
BBX 2 4 4 7
BITMAP
c0
c0
80
40
ENDCHAR
STARTCHAR SMALL
ENCODING 97
SWIDTH 500 0
DWIDTH 9 0
BBX 7 7 1 0
BITMAP
7c
82
02
7e
82
86
7a
ENDCHAR
STARTCHAR SMALL
ENCODING 98
SWIDTH 500 0
DWIDTH 9 0
BBX 7 10 1 0
BITMAP
80
80
80
b8
c4
82
82
82
c4
b8
ENDCHAR
STARTCHAR SMALL
ENCODING 99
SWIDTH 500 0
DWIDTH 9 0
BBX 7 7 1 0
BITMAP
3c
42
80
80
80
42
3c
ENDCHAR
STARTCHAR SMALL
ENCODING 100
SWIDTH 500 0
DWIDTH 9 0
BBX 7 10 1 0
BITMAP
02
02
02
3a
46
82
82
82
46
3a
ENDCHAR
STARTCHAR SMALL
ENCODING 101
SWIDTH 500 0
DWIDTH 9 0
BBX 7 7 1 0
BITMAP
7c
82
82
fe
80
82
7c
ENDCHAR
STARTCHAR SMALL
ENCODING 102
SWIDTH 500 0
DWIDTH 9 0
BBX 6 10 2 0
BITMAP
18
24
20
20
f8
20
20
20
20
20
ENDCHAR
STARTCHAR SMALL
ENCODING 103
SWIDTH 500 0
DWIDTH 9 0
BBX 7 11 1 -3
BITMAP
02
3a
44
82
44
38
40
7c
82
82
7c
ENDCHAR
STARTCHAR SMALL
ENCODING 104
SWIDTH 500 0
DWIDTH 9 0
BBX 7 10 1 0
BITMAP
80
80
80
b8
c4
82
82
82
82
82
ENDCHAR
STARTCHAR SMALL
ENCODING 105
SWIDTH 500 0
DWIDTH 9 0
BBX 5 10 2 0
BITMAP
20
20
00
60
20
20
20
20
20
f8
ENDCHAR
STARTCHAR SMALL
ENCODING 106
SWIDTH 500 0
DWIDTH 9 0
BBX 4 13 2 -3
BITMAP
10
10
00
30
10
10
10
10
10
10
10
90
60
ENDCHAR
STARTCHAR SMALL
ENCODING 107
SWIDTH 500 0
DWIDTH 9 0
BBX 7 10 1 0
BITMAP
80
80
80
84
88
90
b0
c8
84
82
ENDCHAR
STARTCHAR SMALL
ENCODING 108
SWIDTH 500 0
DWIDTH 9 0
BBX 5 10 2 0
BITMAP
60
20
20
20
20
20
20
20
20
f8
ENDCHAR
STARTCHAR SMALL
ENCODING 109
SWIDTH 500 0
DWIDTH 9 0
BBX 7 7 1 0
BITMAP
ec
92
92
92
92
92
92
ENDCHAR
STARTCHAR SMALL
ENCODING 110
SWIDTH 500 0
DWIDTH 9 0
BBX 7 7 1 0
BITMAP
bc
c2
82
82
82
82
82
ENDCHAR
STARTCHAR SMALL
ENCODING 111
SWIDTH 500 0
DWIDTH 9 0
BBX 7 7 1 0
BITMAP
38
44
82
82
82
44
38
ENDCHAR
STARTCHAR c70
ENCODING 112
SWIDTH 500 0
DWIDTH 9 0
BBX 7 10 1 -3
BITMAP
b8
c4
82
82
82
c4
b8
80
80
80
ENDCHAR
STARTCHAR c71
ENCODING 113
SWIDTH 500 0
DWIDTH 9 0
BBX 7 10 1 -3
BITMAP
3a
46
82
82
82
46
3a
02
02
02
ENDCHAR
STARTCHAR SMALL
ENCODING 114
SWIDTH 500 0
DWIDTH 9 0
BBX 7 7 1 0
BITMAP
9c
a2
c0
80
80
80
80
ENDCHAR
STARTCHAR SMALL
ENCODING 115
SWIDTH 500 0
DWIDTH 9 0
BBX 7 7 1 0
BITMAP
7c
82
80
7c
02
82
7c
ENDCHAR
STARTCHAR SMALL
ENCODING 116
SWIDTH 500 0
DWIDTH 9 0
BBX 6 9 2 0
BITMAP
20
20
f8
20
20
20
20
24
18
ENDCHAR
STARTCHAR SMALL
ENCODING 117
SWIDTH 500 0
DWIDTH 9 0
BBX 7 7 1 0
BITMAP
82
82
82
82
82
46
3a
ENDCHAR
STARTCHAR SMALL
ENCODING 118
SWIDTH 500 0
DWIDTH 9 0
BBX 7 7 1 0
BITMAP
82
82
44
44
28
28
10
ENDCHAR
STARTCHAR SMALL
ENCODING 119
SWIDTH 500 0
DWIDTH 9 0
BBX 7 7 1 0
BITMAP
82
92
92
92
92
92
6c
ENDCHAR
STARTCHAR SMALL
ENCODING 120
SWIDTH 500 0
DWIDTH 9 0
BBX 7 7 1 0
BITMAP
82
44
28
10
28
44
82
ENDCHAR
STARTCHAR SMALL
ENCODING 121
SWIDTH 500 0
DWIDTH 9 0
BBX 7 10 1 -3
BITMAP
82
82
82
82
82
46
3a
02
04
78
ENDCHAR
STARTCHAR SMALL
ENCODING 122
SWIDTH 500 0
DWIDTH 9 0
BBX 7 7 1 0
BITMAP
fe
04
08
10
20
40
fe
ENDCHAR
STARTCHAR LEFT
ENCODING 123
SWIDTH 500 0
DWIDTH 9 0
BBX 4 12 3 -1
BITMAP
30
40
40
40
40
80
80
40
40
40
40
30
ENDCHAR
STARTCHAR VERTICAL
ENCODING 124
SWIDTH 500 0
DWIDTH 9 0
BBX 1 14 4 -2
BITMAP
80
80
80
80
80
80
80
80
80
80
80
80
80
80
ENDCHAR
STARTCHAR c7d
ENCODING 125
SWIDTH 500 0
DWIDTH 9 0
BBX 4 12 2 -1
BITMAP
c0
20
20
20
20
10
10
20
20
20
20
c0
ENDCHAR
STARTCHAR TILDE
ENCODING 126
SWIDTH 500 0
DWIDTH 9 0
BBX 7 3 1 7
BITMAP
60
92
0c
ENDCHAR
STARTCHAR ca1
ENCODING 161
SWIDTH 500 0
DWIDTH 9 0
BBX 6 8 2 0
BITMAP
78
84
44
84
84
84
84
84
ENDCHAR
STARTCHAR KHO_KHAI
ENCODING 162
SWIDTH 500 0
DWIDTH 9 0
BBX 5 8 3 0
BITMAP
48
a8
68
28
48
88
88
70
ENDCHAR
STARTCHAR ca3
ENCODING 163
SWIDTH 500 0
DWIDTH 9 0
BBX 6 8 2 0
BITMAP
54
ac
4c
14
24
44
44
38
ENDCHAR
STARTCHAR KHO_KHWAI
ENCODING 164
SWIDTH 500 0
DWIDTH 9 0
BBX 7 8 1 0
BITMAP
38
44
92
aa
d2
c2
82
82
ENDCHAR
STARTCHAR ca5
ENCODING 165
SWIDTH 500 0
DWIDTH 9 0
BBX 7 8 1 0
BITMAP
6c
92
92
aa
d2
c2
82
82
ENDCHAR
STARTCHAR ca6
ENCODING 166
SWIDTH 500 0
DWIDTH 9 0
BBX 7 8 1 0
BITMAP
52
aa
6a
12
22
72
aa
64
ENDCHAR
STARTCHAR NGO_NGU
ENCODING 167
SWIDTH 500 0
DWIDTH 9 0
BBX 6 8 2 0
BITMAP
08
14
0c
84
44
24
14
08
ENDCHAR
STARTCHAR CHO_CHAN
ENCODING 168
SWIDTH 500 0
DWIDTH 9 0
BBX 7 8 1 0
BITMAP
38
44
92
2a
16
06
02
02
ENDCHAR
STARTCHAR CHO_CHING
ENCODING 169
SWIDTH 500 0
DWIDTH 9 0
BBX 8 8 1 0
BITMAP
78
84
42
a2
62
2f
33
22
ENDCHAR
STARTCHAR CHO_CHANG
ENCODING 170
SWIDTH 500 0
DWIDTH 9 0
BBX 5 9 3 0
BITMAP
08
48
a8
70
28
48
88
88
70
ENDCHAR
STARTCHAR cab
ENCODING 171
SWIDTH 500 0
DWIDTH 9 0
BBX 6 9 2 0
BITMAP
04
54
ac
48
14
24
44
44
38
ENDCHAR
STARTCHAR CHO_CHOE
ENCODING 172
SWIDTH 500 0
DWIDTH 9 0
BBX 7 8 1 0
BITMAP
72
8a
4a
8a
8a
da
ae
5a
ENDCHAR
STARTCHAR YO_YING
ENCODING 173
SWIDTH 500 0
DWIDTH 9 0
BBX 7 11 1 -3
BITMAP
72
8a
4a
8a
8a
ca
aa
4e
00
0a
0c
ENDCHAR
STARTCHAR cae
ENCODING 174
SWIDTH 500 0
DWIDTH 9 0
BBX 7 11 1 -3
BITMAP
1c
22
12
22
22
62
a2
46
1a
2a
16
ENDCHAR
STARTCHAR caf
ENCODING 175
SWIDTH 500 0
DWIDTH 9 0
BBX 7 11 1 -3
BITMAP
1c
22
12
22
22
62
a2
52
62
aa
56
ENDCHAR
STARTCHAR cb0
ENCODING 176
SWIDTH 500 0
DWIDTH 9 0
BBX 7 11 1 -3
BITMAP
3e
40
fc
12
2a
16
06
12
66
aa
56
ENDCHAR
STARTCHAR THO_NANGMONTHO
ENCODING 177
SWIDTH 500 0
DWIDTH 9 0
BBX 7 8 1 0
BITMAP
54
aa
4a
12
22
42
42
42
ENDCHAR
STARTCHAR THO_PHUTHAO
ENCODING 178
SWIDTH 500 0
DWIDTH 9 0
BBX 7 8 1 0
BITMAP
da
aa
8a
ea
ea
aa
de
9a
ENDCHAR
STARTCHAR NO_NEN
ENCODING 179
SWIDTH 500 0
DWIDTH 9 0
BBX 8 8 1 0
BITMAP
72
8a
4a
8a
8a
ca
af
4b
ENDCHAR
STARTCHAR cb4
ENCODING 180
SWIDTH 500 0
DWIDTH 9 0
BBX 7 8 1 0
BITMAP
38
44
92
aa
92
a2
c2
82
ENDCHAR
STARTCHAR cb5
ENCODING 181
SWIDTH 500 0
DWIDTH 9 0
BBX 7 8 1 0
BITMAP
6c
92
92
aa
92
a2
c2
82
ENDCHAR
STARTCHAR cb6
ENCODING 182
SWIDTH 500 0
DWIDTH 9 0
BBX 6 8 2 0
BITMAP
78
84
44
84
84
c4
a4
44
ENDCHAR
STARTCHAR THO_THAHAN
ENCODING 183
SWIDTH 500 0
DWIDTH 9 0
BBX 8 8 0 0
BITMAP
46
a9
69
31
31
21
21
21
ENDCHAR
STARTCHAR THO_THONG
ENCODING 184
SWIDTH 500 0
DWIDTH 9 0
BBX 7 8 1 0
BITMAP
3e
40
fc
22
22
22
22
3c
ENDCHAR
STARTCHAR NO_NU
ENCODING 185
SWIDTH 500 0
DWIDTH 9 0
BBX 9 8 0 0
BITMAP
4200
a200
6200
2200
2200
2f00
3280
2300
ENDCHAR
STARTCHAR BO_BAIMAI
ENCODING 186
SWIDTH 500 0
DWIDTH 9 0
BBX 8 8 0 0
BITMAP
41
a1
61
21
21
21
21
1e
ENDCHAR
STARTCHAR cbb
ENCODING 187
SWIDTH 500 0
DWIDTH 9 0
BBX 8 11 0 0
BITMAP
01
01
01
41
a1
61
21
21
21
21
1e
ENDCHAR
STARTCHAR PHO_PHUNG
ENCODING 188
SWIDTH 500 0
DWIDTH 9 0
BBX 7 8 1 0
BITMAP
42
a2
c2
82
92
92
92
6c
ENDCHAR
STARTCHAR cbd
ENCODING 189
SWIDTH 500 0
DWIDTH 9 0
BBX 7 11 1 0
BITMAP
02
02
02
42
a2
c2
82
92
92
92
6c
ENDCHAR
STARTCHAR PHO_PHAN
ENCODING 190
SWIDTH 500 0
DWIDTH 9 0
BBX 8 8 0 0
BITMAP
41
a9
69
29
49
49
49
36
ENDCHAR
STARTCHAR cbf
ENCODING 191
SWIDTH 500 0
DWIDTH 9 0
BBX 8 11 0 0
BITMAP
01
01
01
41
a9
69
29
49
49
49
36
ENDCHAR
STARTCHAR cc0
ENCODING 192
SWIDTH 500 0
DWIDTH 9 0
BBX 8 8 0 0
BITMAP
1e
21
11
21
21
61
a1
41
ENDCHAR
STARTCHAR MO_MA
ENCODING 193
SWIDTH 500 0
DWIDTH 9 0
BBX 7 8 1 0
BITMAP
42
a2
62
22
22
72
aa
64
ENDCHAR
STARTCHAR YO_YAK
ENCODING 194
SWIDTH 500 0
DWIDTH 9 0
BBX 6 8 2 0
BITMAP
64
d4
a4
84
64
84
84
78
ENDCHAR
STARTCHAR cc3
ENCODING 195
SWIDTH 500 0
DWIDTH 9 0
BBX 7 8 1 0
BITMAP
3e
40
fc
02
02
06
0a
04
ENDCHAR
STARTCHAR cc4
ENCODING 196
SWIDTH 500 0
DWIDTH 9 0
BBX 6 11 2 -3
BITMAP
78
84
44
84
84
c4
a4
44
04
04
04
ENDCHAR
STARTCHAR LO_LING
ENCODING 197
SWIDTH 500 0
DWIDTH 9 0
BBX 7 8 1 0
BITMAP
38
44
82
32
4a
c6
a6
42
ENDCHAR
STARTCHAR cc6
ENCODING 198
SWIDTH 500 0
DWIDTH 9 0
BBX 8 11 0 -3
BITMAP
1e
21
11
21
21
61
a1
41
01
01
01
ENDCHAR
STARTCHAR WO_WAEN
ENCODING 199
SWIDTH 500 0
DWIDTH 9 0
BBX 7 8 1 0
BITMAP
38
44
82
02
02
06
0a
04
ENDCHAR
STARTCHAR cc8
ENCODING 200
SWIDTH 500 0
DWIDTH 9 0
BBX 7 9 1 0
BITMAP
02
3a
44
92
aa
d2
c2
82
82
ENDCHAR
STARTCHAR cc9
ENCODING 201
SWIDTH 500 0
DWIDTH 9 0
BBX 9 8 0 0
BITMAP
4100
a100
6580
2b00
2500
2100
2100
1e00
ENDCHAR
STARTCHAR cca
ENCODING 202
SWIDTH 500 0
DWIDTH 9 0
BBX 7 9 1 0
BITMAP
02
3a
44
82
32
4a
c6
a6
42
ENDCHAR
STARTCHAR HO_HIP
ENCODING 203
SWIDTH 500 0
DWIDTH 9 0
BBX 8 8 0 0
BITMAP
42
a5
66
29
31
31
21
21
ENDCHAR
STARTCHAR LO_CHULA
ENCODING 204
SWIDTH 500 0
DWIDTH 9 0
BBX 8 9 0 0
BITMAP
05
4a
a5
61
29
49
49
49
36
ENDCHAR
STARTCHAR O_ANG
ENCODING 205
SWIDTH 500 0
DWIDTH 9 0
BBX 7 8 1 0
BITMAP
38
44
82
22
52
62
42
3c
ENDCHAR
STARTCHAR cce
ENCODING 206
SWIDTH 500 0
DWIDTH 9 0
BBX 6 9 2 0
BITMAP
04
74
88
74
44
a4
c4
84
78
ENDCHAR
STARTCHAR PAI_YAN_NOI
ENCODING 207
SWIDTH 500 0
DWIDTH 9 0
BBX 7 8 1 0
BITMAP
44
aa
72
02
02
02
02
04
ENDCHAR
STARTCHAR SARA_A
ENCODING 208
SWIDTH 500 0
DWIDTH 9 0
BBX 6 7 1 1
BITMAP
44
a8
70
00
44
a8
70
ENDCHAR
STARTCHAR MAI_HAN-AKAT
ENCODING 209
SWIDTH 500 0
DWIDTH 9 0
BBX 6 3 3 9
BITMAP
40
a4
78
ENDCHAR
STARTCHAR SARA_AA
ENCODING 210
SWIDTH 500 0
DWIDTH 9 0
BBX 6 8 1 0
BITMAP
78
84
04
04
04
04
04
04
ENDCHAR
STARTCHAR SARA_AM
ENCODING 211
SWIDTH 500 0
DWIDTH 9 0
BBX 7 11 0 0
BITMAP
40
a0
40
3c
42
02
02
02
02
02
02
ENDCHAR
STARTCHAR SARA_I
ENCODING 212
SWIDTH 500 0
DWIDTH 9 0
BBX 6 3 2 9
BITMAP
78
84
fc
ENDCHAR
STARTCHAR SARA_II
ENCODING 213
SWIDTH 500 0
DWIDTH 9 0
BBX 7 3 1 9
BITMAP
72
8a
fe
ENDCHAR
STARTCHAR SARA_UE
ENCODING 214
SWIDTH 500 0
DWIDTH 9 0
BBX 7 3 1 9
BITMAP
74
8a
fc
ENDCHAR
STARTCHAR SARA_UEE
ENCODING 215
SWIDTH 500 0
DWIDTH 9 0
BBX 7 3 1 9
BITMAP
6a
9a
fe
ENDCHAR
STARTCHAR SARA_U
ENCODING 216
SWIDTH 500 0
DWIDTH 9 0
BBX 2 3 6 -3
BITMAP
c0
c0
40
ENDCHAR
STARTCHAR SARA_UU
ENCODING 217
SWIDTH 500 0
DWIDTH 9 0
BBX 4 3 4 -3
BITMAP
d0
d0
70
ENDCHAR
STARTCHAR PHINTHU
ENCODING 218
SWIDTH 500 0
DWIDTH 9 0
BBX 2 2 4 -2
BITMAP
c0
c0
ENDCHAR
STARTCHAR BAHT
ENCODING 223
SWIDTH 500 0
DWIDTH 9 0
BBX 7 10 1 0
BITMAP
10
fc
52
52
7c
52
52
52
fc
10
ENDCHAR
STARTCHAR SARA_E
ENCODING 224
SWIDTH 500 0
DWIDTH 9 0
BBX 3 8 4 0
BITMAP
80
80
80
80
80
c0
a0
40
ENDCHAR
STARTCHAR SARA_AE
ENCODING 225
SWIDTH 500 0
DWIDTH 9 0
BBX 7 8 2 0
BITMAP
88
88
88
88
88
cc
aa
44
ENDCHAR
STARTCHAR SARA_O
ENCODING 226
SWIDTH 500 0
DWIDTH 9 0
BBX 7 12 1 0
BITMAP
3e
40
f0
08
08
08
08
08
08
0c
0a
04
ENDCHAR
STARTCHAR SARA_MAI_MUAN
ENCODING 227
SWIDTH 500 0
DWIDTH 9 0
BBX 7 12 1 0
BITMAP
70
88
c8
a8
48
08
08
08
08
0c
0a
04
ENDCHAR
STARTCHAR SARA_MAI_MALAI
ENCODING 228
SWIDTH 500 0
DWIDTH 9 0
BBX 8 12 0 0
BITMAP
88
54
24
04
04
04
04
04
04
06
05
02
ENDCHAR
STARTCHAR LAK_KHANG_YAO
ENCODING 229
SWIDTH 500 0
DWIDTH 9 0
BBX 6 11 1 -3
BITMAP
78
84
04
04
04
04
04
04
04
04
04
ENDCHAR
STARTCHAR MAI_YAMOK
ENCODING 230
SWIDTH 500 0
DWIDTH 9 0
BBX 6 10 1 -2
BITMAP
58
a4
44
04
04
04
04
04
04
08
ENDCHAR
STARTCHAR MAI_TAI_KHU
ENCODING 231
SWIDTH 500 0
DWIDTH 9 0
BBX 6 3 2 9
BITMAP
7c
a8
58
ENDCHAR
STARTCHAR MAI_EK
ENCODING 232
SWIDTH 500 0
DWIDTH 9 0
BBX 1 3 7 12
BITMAP
80
80
80
ENDCHAR
STARTCHAR MAI_THO
ENCODING 233
SWIDTH 500 0
DWIDTH 9 0
BBX 5 3 4 12
BITMAP
c0
48
f0
ENDCHAR
STARTCHAR MAI_TRI
ENCODING 234
SWIDTH 500 0
DWIDTH 9 0
BBX 7 3 2 12
BITMAP
50
aa
4c
ENDCHAR
STARTCHAR MAI_CHATTAWA
ENCODING 235
SWIDTH 500 0
DWIDTH 9 0
BBX 3 3 5 12
BITMAP
40
e0
40
ENDCHAR
STARTCHAR THANTHAKHAT
ENCODING 236
SWIDTH 500 0
DWIDTH 9 0
BBX 4 3 5 12
BITMAP
10
e0
c0
ENDCHAR
STARTCHAR NIKKHAHIT
ENCODING 237
SWIDTH 500 0
DWIDTH 9 0
BBX 3 3 4 9
BITMAP
40
a0
40
ENDCHAR
STARTCHAR YAMAKKAN
ENCODING 238
SWIDTH 500 0
DWIDTH 9 0
BBX 5 3 4 9
BITMAP
78
a0
80
ENDCHAR
STARTCHAR FONGMAN
ENCODING 239
SWIDTH 500 0
DWIDTH 9 0
BBX 7 7 1 0
BITMAP
38
44
92
aa
92
44
38
ENDCHAR
STARTCHAR ZERO
ENCODING 240
SWIDTH 500 0
DWIDTH 9 0
BBX 7 7 1 0
BITMAP
38
44
82
82
82
44
38
ENDCHAR
STARTCHAR ONE
ENCODING 241
SWIDTH 500 0
DWIDTH 9 0
BBX 7 7 1 0
BITMAP
38
44
82
a2
d2
b2
64
ENDCHAR
STARTCHAR TWO
ENCODING 242
SWIDTH 500 0
DWIDTH 9 0
BBX 8 8 0 0
BITMAP
80
4a
55
59
55
49
41
3e
ENDCHAR
STARTCHAR THREE
ENCODING 243
SWIDTH 500 0
DWIDTH 9 0
BBX 7 7 1 0
BITMAP
6c
92
92
a2
d2
b2
64
ENDCHAR
STARTCHAR FOUR
ENCODING 244
SWIDTH 500 0
DWIDTH 9 0
BBX 7 8 1 0
BITMAP
02
3c
40
88
94
98
88
7e
ENDCHAR
STARTCHAR FIVE
ENCODING 245
SWIDTH 500 0
DWIDTH 9 0
BBX 7 9 1 0
BITMAP
12
2a
1c
60
88
94
98
88
7e
ENDCHAR
STARTCHAR SIX
ENCODING 246
SWIDTH 500 0
DWIDTH 9 0
BBX 7 8 1 0
BITMAP
80
b8
44
02
12
2a
32
1c
ENDCHAR
STARTCHAR SEVEN
ENCODING 247
SWIDTH 500 0
DWIDTH 9 0
BBX 8 7 1 0
BITMAP
4a
b5
85
a5
d5
a5
6e
ENDCHAR
STARTCHAR EIGHT
ENCODING 248
SWIDTH 500 0
DWIDTH 9 0
BBX 7 8 1 0
BITMAP
02
3c
40
84
8a
96
92
6c
ENDCHAR
STARTCHAR NINE
ENCODING 249
SWIDTH 500 0
DWIDTH 9 0
BBX 7 8 1 0
BITMAP
02
6c
98
98
a8
d4
b4
62
ENDCHAR
STARTCHAR ANGKHANKHU
ENCODING 250
SWIDTH 500 0
DWIDTH 9 0
BBX 8 8 0 0
BITMAP
45
ad
75
05
05
05
05
0a
ENDCHAR
STARTCHAR KHOMUT
ENCODING 251
SWIDTH 500 0
DWIDTH 9 0
BBX 7 8 1 0
BITMAP
40
a0
80
aa
ac
b0
a0
40
ENDCHAR
ENDFONT
